<mxfile host="Electron" agent="Mozilla/5.0 (Macintosh; Intel Mac OS X 10_15_7) AppleWebKit/537.36 (KHTML, like Gecko) draw.io/27.0.5 Chrome/134.0.6998.205 Electron/35.3.0 Safari/537.36" version="27.0.5">
  <diagram name="PÃ¡gina-1" id="Bf_41dkeI2ZrSGt8w0FK">
    <mxGraphModel dx="2102" dy="1627" grid="1" gridSize="10" guides="1" tooltips="1" connect="1" arrows="1" fold="1" page="1" pageScale="1" pageWidth="1700" pageHeight="1100" math="0" shadow="0">
      <root>
        <mxCell id="0" />
        <mxCell id="1" parent="0" />
        <mxCell id="4dfjVyAfbV2_kcWfZThS-1" value="" style="rounded=0;whiteSpace=wrap;html=1;dashed=1;" parent="1" vertex="1">
          <mxGeometry x="340" y="70" width="1770" height="780" as="geometry" />
        </mxCell>
        <mxCell id="4dfjVyAfbV2_kcWfZThS-44" value="" style="edgeStyle=orthogonalEdgeStyle;rounded=0;orthogonalLoop=1;jettySize=auto;html=1;" parent="1" target="4dfjVyAfbV2_kcWfZThS-43" edge="1">
          <mxGeometry relative="1" as="geometry">
            <mxPoint x="1120" y="340" as="sourcePoint" />
          </mxGeometry>
        </mxCell>
        <mxCell id="4dfjVyAfbV2_kcWfZThS-36" style="edgeStyle=orthogonalEdgeStyle;rounded=0;orthogonalLoop=1;jettySize=auto;html=1;" parent="1" edge="1">
          <mxGeometry relative="1" as="geometry">
            <mxPoint x="604" y="340" as="sourcePoint" />
            <mxPoint x="486" y="234.84000000000015" as="targetPoint" />
            <Array as="points">
              <mxPoint x="487" y="340" />
              <mxPoint x="487" y="235" />
            </Array>
          </mxGeometry>
        </mxCell>
        <mxCell id="4dfjVyAfbV2_kcWfZThS-37" style="edgeStyle=orthogonalEdgeStyle;rounded=0;orthogonalLoop=1;jettySize=auto;html=1;" parent="1" source="4dfjVyAfbV2_kcWfZThS-24" target="4dfjVyAfbV2_kcWfZThS-20" edge="1">
          <mxGeometry relative="1" as="geometry" />
        </mxCell>
        <mxCell id="4dfjVyAfbV2_kcWfZThS-24" value="" style="sketch=0;points=[[0,0,0],[0.25,0,0],[0.5,0,0],[0.75,0,0],[1,0,0],[0,1,0],[0.25,1,0],[0.5,1,0],[0.75,1,0],[1,1,0],[0,0.25,0],[0,0.5,0],[0,0.75,0],[1,0.25,0],[1,0.5,0],[1,0.75,0]];outlineConnect=0;fontColor=#232F3E;fillColor=#8C4FFF;strokeColor=#ffffff;dashed=0;verticalLabelPosition=bottom;verticalAlign=top;align=center;html=1;fontSize=12;fontStyle=0;aspect=fixed;shape=mxgraph.aws4.resourceIcon;resIcon=mxgraph.aws4.glue;" parent="1" vertex="1">
          <mxGeometry x="640" y="300" width="80" height="80" as="geometry" />
        </mxCell>
        <mxCell id="4dfjVyAfbV2_kcWfZThS-28" value="AWS Cloud" style="points=[[0,0],[0.25,0],[0.5,0],[0.75,0],[1,0],[1,0.25],[1,0.5],[1,0.75],[1,1],[0.75,1],[0.5,1],[0.25,1],[0,1],[0,0.75],[0,0.5],[0,0.25]];outlineConnect=0;gradientColor=none;html=1;whiteSpace=wrap;fontSize=12;fontStyle=0;container=1;pointerEvents=0;collapsible=0;recursiveResize=0;shape=mxgraph.aws4.group;grIcon=mxgraph.aws4.group_aws_cloud;strokeColor=#232F3E;fillColor=none;verticalAlign=top;align=left;spacingLeft=30;fontColor=#232F3E;dashed=0;" parent="1" vertex="1">
          <mxGeometry x="600" y="140" width="1440" height="630" as="geometry" />
        </mxCell>
        <mxCell id="4dfjVyAfbV2_kcWfZThS-20" value="" style="sketch=0;points=[[0,0,0],[0.25,0,0],[0.5,0,0],[0.75,0,0],[1,0,0],[0,1,0],[0.25,1,0],[0.5,1,0],[0.75,1,0],[1,1,0],[0,0.25,0],[0,0.5,0],[0,0.75,0],[1,0.25,0],[1,0.5,0],[1,0.75,0]];outlineConnect=0;fontColor=#232F3E;fillColor=#7AA116;strokeColor=#ffffff;dashed=0;verticalLabelPosition=bottom;verticalAlign=top;align=center;html=1;fontSize=12;fontStyle=0;aspect=fixed;shape=mxgraph.aws4.resourceIcon;resIcon=mxgraph.aws4.s3;" parent="4dfjVyAfbV2_kcWfZThS-28" vertex="1">
          <mxGeometry x="240" y="160" width="80" height="80" as="geometry" />
        </mxCell>
        <mxCell id="4dfjVyAfbV2_kcWfZThS-45" value="" style="sketch=0;points=[[0,0,0],[0.25,0,0],[0.5,0,0],[0.75,0,0],[1,0,0],[0,1,0],[0.25,1,0],[0.5,1,0],[0.75,1,0],[1,1,0],[0,0.25,0],[0,0.5,0],[0,0.75,0],[1,0.25,0],[1,0.5,0],[1,0.75,0]];outlineConnect=0;fontColor=#232F3E;fillColor=#7AA116;strokeColor=#ffffff;dashed=0;verticalLabelPosition=bottom;verticalAlign=top;align=center;html=1;fontSize=12;fontStyle=0;aspect=fixed;shape=mxgraph.aws4.resourceIcon;resIcon=mxgraph.aws4.s3;" parent="4dfjVyAfbV2_kcWfZThS-28" vertex="1">
          <mxGeometry x="790" y="320" width="80" height="80" as="geometry" />
        </mxCell>
        <mxCell id="4dfjVyAfbV2_kcWfZThS-53" value="&lt;div&gt;glue-strava-kaggle&lt;/div&gt;" style="text;html=1;align=center;verticalAlign=middle;whiteSpace=wrap;rounded=0;" parent="4dfjVyAfbV2_kcWfZThS-28" vertex="1">
          <mxGeometry x="41" y="240" width="80" height="40" as="geometry" />
        </mxCell>
        <mxCell id="4dfjVyAfbV2_kcWfZThS-54" value="GenerateArtfacts.ipynb" style="text;html=1;align=center;verticalAlign=middle;whiteSpace=wrap;rounded=0;" parent="4dfjVyAfbV2_kcWfZThS-28" vertex="1">
          <mxGeometry x="630" y="260" width="60" height="30" as="geometry" />
        </mxCell>
        <mxCell id="4dfjVyAfbV2_kcWfZThS-56" value="AWS S3 &amp;nbsp;&lt;br&gt;postech-data-running/strava/curated&lt;div&gt;&lt;br&gt;&lt;/div&gt;" style="text;html=1;align=center;verticalAlign=middle;whiteSpace=wrap;rounded=0;" parent="4dfjVyAfbV2_kcWfZThS-28" vertex="1">
          <mxGeometry x="230" y="260" width="90" height="30" as="geometry" />
        </mxCell>
        <mxCell id="4dfjVyAfbV2_kcWfZThS-58" value="Modelo_final.ipynb" style="text;html=1;align=center;verticalAlign=middle;whiteSpace=wrap;rounded=0;" parent="4dfjVyAfbV2_kcWfZThS-28" vertex="1">
          <mxGeometry x="420" y="255" width="120" height="40" as="geometry" />
        </mxCell>
        <mxCell id="4dfjVyAfbV2_kcWfZThS-59" value="AWS S3&lt;br&gt;Postech-data-running/model/outuput/tabela_final_atletas_com_modelos&lt;div&gt;&lt;br&gt;&lt;/div&gt;" style="text;html=1;align=center;verticalAlign=middle;whiteSpace=wrap;rounded=0;" parent="4dfjVyAfbV2_kcWfZThS-28" vertex="1">
          <mxGeometry x="655" y="371" width="350" height="140" as="geometry" />
        </mxCell>
        <mxCell id="4dfjVyAfbV2_kcWfZThS-67" value="postech-output-data-running.py" style="text;html=1;align=center;verticalAlign=middle;whiteSpace=wrap;rounded=0;" parent="4dfjVyAfbV2_kcWfZThS-28" vertex="1">
          <mxGeometry x="939" y="250" width="120" height="30" as="geometry" />
        </mxCell>
        <mxCell id="4dfjVyAfbV2_kcWfZThS-2" value="" style="dashed=0;outlineConnect=0;html=1;align=center;labelPosition=center;verticalLabelPosition=bottom;verticalAlign=top;shape=mxgraph.weblogos.github" parent="4dfjVyAfbV2_kcWfZThS-28" vertex="1">
          <mxGeometry x="1405.5" y="590" width="51" height="53" as="geometry" />
        </mxCell>
        <mxCell id="4dfjVyAfbV2_kcWfZThS-10" value="User" style="shape=umlActor;verticalLabelPosition=bottom;verticalAlign=top;html=1;outlineConnect=0;" parent="4dfjVyAfbV2_kcWfZThS-28" vertex="1">
          <mxGeometry x="1375.5" y="169" width="30" height="60" as="geometry" />
        </mxCell>
        <mxCell id="2vScsUYP6JVQA4qvU79o-14" style="edgeStyle=orthogonalEdgeStyle;rounded=0;orthogonalLoop=1;jettySize=auto;html=1;" edge="1" parent="4dfjVyAfbV2_kcWfZThS-28" source="4dfjVyAfbV2_kcWfZThS-43" target="2vScsUYP6JVQA4qvU79o-6">
          <mxGeometry relative="1" as="geometry" />
        </mxCell>
        <mxCell id="4dfjVyAfbV2_kcWfZThS-43" value="" style="sketch=0;points=[[0,0,0],[0.25,0,0],[0.5,0,0],[0.75,0,0],[1,0,0],[0,1,0],[0.25,1,0],[0.5,1,0],[0.75,1,0],[1,1,0],[0,0.25,0],[0,0.5,0],[0,0.75,0],[1,0.25,0],[1,0.5,0],[1,0.75,0]];outlineConnect=0;fontColor=#232F3E;fillColor=#8C4FFF;strokeColor=#ffffff;dashed=0;verticalLabelPosition=bottom;verticalAlign=top;align=center;html=1;fontSize=12;fontStyle=0;aspect=fixed;shape=mxgraph.aws4.resourceIcon;resIcon=mxgraph.aws4.glue;" parent="4dfjVyAfbV2_kcWfZThS-28" vertex="1">
          <mxGeometry x="620" y="160" width="80" height="80" as="geometry" />
        </mxCell>
        <mxCell id="4dfjVyAfbV2_kcWfZThS-62" value="" style="edgeStyle=orthogonalEdgeStyle;rounded=0;orthogonalLoop=1;jettySize=auto;html=1;" parent="4dfjVyAfbV2_kcWfZThS-28" source="4dfjVyAfbV2_kcWfZThS-43" target="4dfjVyAfbV2_kcWfZThS-45" edge="1">
          <mxGeometry relative="1" as="geometry" />
        </mxCell>
        <mxCell id="2vScsUYP6JVQA4qvU79o-17" value="" style="edgeStyle=orthogonalEdgeStyle;rounded=0;orthogonalLoop=1;jettySize=auto;html=1;" edge="1" parent="4dfjVyAfbV2_kcWfZThS-28" source="2vScsUYP6JVQA4qvU79o-6" target="2vScsUYP6JVQA4qvU79o-7">
          <mxGeometry relative="1" as="geometry" />
        </mxCell>
        <mxCell id="2vScsUYP6JVQA4qvU79o-6" value="" style="sketch=0;points=[[0,0,0],[0.25,0,0],[0.5,0,0],[0.75,0,0],[1,0,0],[0,1,0],[0.25,1,0],[0.5,1,0],[0.75,1,0],[1,1,0],[0,0.25,0],[0,0.5,0],[0,0.75,0],[1,0.25,0],[1,0.5,0],[1,0.75,0]];outlineConnect=0;fontColor=#232F3E;fillColor=#ED7100;strokeColor=#ffffff;dashed=0;verticalLabelPosition=bottom;verticalAlign=top;align=center;html=1;fontSize=12;fontStyle=0;aspect=fixed;shape=mxgraph.aws4.resourceIcon;resIcon=mxgraph.aws4.lambda;" vertex="1" parent="4dfjVyAfbV2_kcWfZThS-28">
          <mxGeometry x="960" y="160" width="78" height="78" as="geometry" />
        </mxCell>
        <mxCell id="2vScsUYP6JVQA4qvU79o-7" value="" style="sketch=0;points=[[0,0,0],[0.25,0,0],[0.5,0,0],[0.75,0,0],[1,0,0],[0,1,0],[0.25,1,0],[0.5,1,0],[0.75,1,0],[1,1,0],[0,0.25,0],[0,0.5,0],[0,0.75,0],[1,0.25,0],[1,0.5,0],[1,0.75,0]];outlineConnect=0;fontColor=#232F3E;fillColor=#8C4FFF;strokeColor=#ffffff;dashed=0;verticalLabelPosition=bottom;verticalAlign=top;align=center;html=1;fontSize=12;fontStyle=0;aspect=fixed;shape=mxgraph.aws4.resourceIcon;resIcon=mxgraph.aws4.api_gateway;" vertex="1" parent="4dfjVyAfbV2_kcWfZThS-28">
          <mxGeometry x="1150" y="160" width="78" height="78" as="geometry" />
        </mxCell>
        <mxCell id="2vScsUYP6JVQA4qvU79o-9" style="edgeStyle=orthogonalEdgeStyle;rounded=0;orthogonalLoop=1;jettySize=auto;html=1;startArrow=classic;startFill=1;" edge="1" parent="4dfjVyAfbV2_kcWfZThS-28" source="2vScsUYP6JVQA4qvU79o-8" target="4dfjVyAfbV2_kcWfZThS-53">
          <mxGeometry relative="1" as="geometry" />
        </mxCell>
        <mxCell id="2vScsUYP6JVQA4qvU79o-8" value="" style="sketch=0;points=[[0,0,0],[0.25,0,0],[0.5,0,0],[0.75,0,0],[1,0,0],[0,1,0],[0.25,1,0],[0.5,1,0],[0.75,1,0],[1,1,0],[0,0.25,0],[0,0.5,0],[0,0.75,0],[1,0.25,0],[1,0.5,0],[1,0.75,0]];outlineConnect=0;fontColor=#232F3E;fillColor=#DD344C;strokeColor=#ffffff;dashed=0;verticalLabelPosition=bottom;verticalAlign=top;align=center;html=1;fontSize=12;fontStyle=0;aspect=fixed;shape=mxgraph.aws4.resourceIcon;resIcon=mxgraph.aws4.secrets_manager;" vertex="1" parent="4dfjVyAfbV2_kcWfZThS-28">
          <mxGeometry x="41" y="390" width="78" height="78" as="geometry" />
        </mxCell>
        <mxCell id="2vScsUYP6JVQA4qvU79o-10" value="&lt;div&gt;&lt;span&gt;kaggle/creds&lt;/span&gt;&lt;/div&gt;" style="text;html=1;align=center;verticalAlign=middle;whiteSpace=wrap;rounded=0;fontStyle=0" vertex="1" parent="4dfjVyAfbV2_kcWfZThS-28">
          <mxGeometry x="90" y="320" width="80" height="40" as="geometry" />
        </mxCell>
        <mxCell id="2vScsUYP6JVQA4qvU79o-19" style="edgeStyle=orthogonalEdgeStyle;rounded=0;orthogonalLoop=1;jettySize=auto;html=1;entryX=0.5;entryY=0.5;entryDx=0;entryDy=0;entryPerimeter=0;" edge="1" parent="4dfjVyAfbV2_kcWfZThS-28" source="2vScsUYP6JVQA4qvU79o-7" target="4dfjVyAfbV2_kcWfZThS-10">
          <mxGeometry relative="1" as="geometry" />
        </mxCell>
        <mxCell id="2vScsUYP6JVQA4qvU79o-20" value="pipeline_modelo.pkl&lt;div&gt;&lt;br&gt;&lt;/div&gt;" style="text;html=1;align=center;verticalAlign=middle;whiteSpace=wrap;rounded=0;" vertex="1" parent="4dfjVyAfbV2_kcWfZThS-28">
          <mxGeometry x="800" y="160" width="60" height="30" as="geometry" />
        </mxCell>
        <mxCell id="2vScsUYP6JVQA4qvU79o-21" value="api-consumo-marathon.yaml" style="text;html=1;align=center;verticalAlign=middle;whiteSpace=wrap;rounded=0;" vertex="1" parent="4dfjVyAfbV2_kcWfZThS-28">
          <mxGeometry x="1159" y="261" width="60" height="30" as="geometry" />
        </mxCell>
        <mxCell id="4dfjVyAfbV2_kcWfZThS-41" value="" style="edgeStyle=orthogonalEdgeStyle;rounded=0;orthogonalLoop=1;jettySize=auto;html=1;" parent="1" source="4dfjVyAfbV2_kcWfZThS-20" edge="1">
          <mxGeometry relative="1" as="geometry">
            <mxPoint x="1040" y="340" as="targetPoint" />
          </mxGeometry>
        </mxCell>
        <mxCell id="2vScsUYP6JVQA4qvU79o-1" value="" style="shape=image;verticalLabelPosition=bottom;labelBackgroundColor=default;verticalAlign=top;aspect=fixed;imageAspect=0;image=data:image/png,iVBORw0KGgoAAAANSUhEUgAAAOUAAAB9CAYAAABd/KQ4AAAYTWlDQ1BJQ0MgUHJvZmlsZQAAWIWVeQk4lV3X/77PfI75HPM8z2Se53meZxKO6ZjiGEOJJGOiQkglGSuVQiUiDUoZekiSSIZKoaJC9d2Gep73ef/X/7u+fV373r+z9tprrb3WHu51bgC4qnwjI8MQjACER8RQHUwN+N3cPfixbwEG4AAzUAYCvuToSH07OysAl9/tf5aVYQBttE9lNmT9d///tzD5B0STAYDsYOznH00Oh/FVAFDl5EhqDACYDbpQfEzkBoYrYKbCBsI4cwMHbeHyDey3hS9t8jg5GMK4GwAcra8vNQgA+n6Yzh9HDoJl0C/CfcQIf0oEACwoGOuEh+/2B4DLCOYRh3kiYbwxDzW/f8gJ+g+Zfn9k+voG/cFbc9ksOCNKdGSY757/ozv+9xIeFvtbhyhcaYOpZg4bc4b9NhK623ID08J4PsLPxhbGRBh/o/hv8sMYQQiONXPe4kdwk6MNYZ8BVhjL+fsaWcKYG8YmEWE2Vtt0v0CKiTmM4RWCSKDEmDvBmB3GmQHRxo7bPKepux22dSGaA6mG+tv0B77UTb0busZjQ531t+V/Cg4w35aPpE8MdnKFMQHGwnEUFxsY08NYNjrU0XKbRysx2NDmNw811mHDfmEYOwREmBpsyUfGBVJNHLb5s8Ojf88XeTqYYm6zja/EBDuZbfkH2U323bQfnguyPyBC3/m3nIBoN6vfc/EPMDLemjtyLiDC2XFbzrfIGAOHrbEoQmSY3TY/SjAgzHSDLghjpeg4x+2xKJcYeEFuyUcFRsbYOW3ZiUoM8bWw27IHdQRYAUNgBPhBLFz9wG4QAihP5lvm4V9bPSbAF1BBEAgAMtuU3yNcN3si4KcjSAQfYBQAov+MM9jsDQBxMP3HH+rWUwYEbvbGbY4IBTMwDgeWIAz+Hbs5KuKPNhfwBqZQ/ku7L1zJsL1hcN3o/3/Tf1P/pujDFKttSuxvjfwMvzkxxhgjjBnGBCOB4kTpoDRRVvBTD64KKDWU+u95/M2PnkEPoF+jh9AT6Oe7KGnUf1lpDSZg+SbbvvD7py9QorBMZZQBShuWDktGsaI4gQxKCdajj9KFNSvDVMNtuze8wv8v2f8xg39EY5sPL4dH4Nnwenjxf4+kl6RX/iNlw9f/9M+WrX5//G34p+ff+g3/4X1/uLX8NycyE9mEvI/sRPYg25AtgB/ZgWxF9iJvbeA/q+vN5ur6rc1h055QWA7lv/T9juyGJ6PlGuTeyq1v9cUEJGyc0cBwd+QeKiUoOIZfH74RAvjNI8iy0vwKcgrKAGzcL1vH12eHzXsDYu37m0Y+CIAqfD7jV/+mhX8G4BK89/mt/6aJeMPbDwNA7Qw5lhq3RUNtPNDwKcEA7zQOwAuEgDg8HwWgAjSBHjAGFsAWOAF34A1bHwyvcyqIB8kgFWSAHHAEHAel4BQ4C2rBBXAFtIA20AnugUegHwyBF/DqmQbvwSJYAWsQBGEhOogEcUB8kAgkBSlAapAOZAxZQQ6QO+QDBUERUCyUDB2AcqBCqBQ6A9VBl6HrUCfUAw1Az6FJ6C30CVpFIBG0CGYED0IUsQOhhtBHWCKcEDsRQYgoRCIiHXEYUYKoRJxHNCM6EY8QQ4gJxHvEMhIgaZCsSAGkDFINaYi0RXogA5FU5D5kNrIIWYm8iLwBx/kpcgI5j/yOwqBIKH6UDLyCzVDOKDIqCrUPlYsqRdWimlHdqKeoSdQi6ieaDs2NlkJroM3RbuggdDw6A12ErkZfQ9+F99I0egWDwbBixDCq8F50x4RgkjC5mJOYRsxtzABmCrOMxWI5sFJYbawt1hcbg83AnsCex3ZgB7HT2G84GhwfTgFngvPAReDScEW4elw7bhA3i1vDM+JF8Bp4W7w/fg8+H1+Fv4Hvw0/j1whMBDGCNsGJEEJIJZQQLhLuEsYIn2loaARp1GnsaSg0+2lKaC7RPKCZpPlOS6SVpDWk9aKNpT1MW0N7m/Y57Wc6OjpROj06D7oYusN0dXR36MbpvtGT6GXpzen96VPoy+ib6QfpPzLgGUQY9Bm8GRIZihiaGPoY5hnxjKKMhoy+jPsYyxivMz5jXGYiMckz2TKFM+Uy1TP1MM0RsURRojHRn5hOPEu8Q5wiIUlCJEMSmXSAVEW6S5pmxjCLMZszhzDnMF9gfsK8yEJkUWJxYUlgKWO5xTLBimQVZTVnDWPNZ73COsy6ysbDps8WwJbFdpFtkO0rOxe7HnsAezZ7I/sQ+yoHP4cxRyhHAUcLx0tOFKckpz1nPGcF513OeS5mLk0uMlc21xWuUW4EtyS3A3cS91nuXu5lHl4eU55InhM8d3jmeVl59XhDeI/xtvO+5SPx6fBR+I7xdfC942fh1+cP4y/h7+ZfFOAWMBOIFTgj8ERgTVBM0FkwTbBR8KUQQUhNKFDomFCX0KIwn7C1cLJwg/CoCF5ETSRYpFjkvshXUTFRV9FDoi2ic2LsYuZiiWINYmPidOK64lHileJ/SWAk1CRCJU5K9EsiJJUlgyXLJPukEFIqUhSpk1ID0mhpdekI6UrpZzK0MvoycTINMpOyrLJWsmmyLbIfdwjv8NhRsOP+jp9yynJhclVyL+SJ8hbyafI35D8pSCqQFcoU/lKkUzRRTFFsVVxSklIKUKpQGlEmKVsrH1LuUv6hoqpCVbmo8lZVWNVHtVz1mRqzmp1artoDdbS6gXqKepv6dw0VjRiNKxoLmjKaoZr1mnNaYloBWlVaU9qC2r7aZ7QndPh1fHRO60zoCuj66lbqvtYT0vPXq9ab1ZfQD9E/r//RQM6AanDN4KuhhuFew9tGSCNTo2yjJ8ZEY2fjUuNxE0GTIJMGk0VTZdMk09tmaDNLswKzZ+Y85mTzOvNFC1WLvRbdlrSWjpallq+tJK2oVjesEdYW1ketx2xEbCJsWmyBrbntUduXdmJ2UXY37TH2dvZl9jMO8g7JDvcdSY67HOsdV5wMnPKdXjiLO8c6d7kwuHi51Ll8dTVyLXSdcNvhttftkTunO8W91QPr4eJR7bHsaex53HPaS9krw2t4p9jOhJ093pzeYd63djHs8t3V5IP2cfWp91n3tfWt9F32M/cr91skG5KLye/99fyP+b8N0A4oDJgN1A4sDJwL0g46GvQ2WDe4KHieYkgppSyFmIWcCvkaahtaE/orzDWsMRwX7hN+PYIYERrRvZt3d8LugUipyIzIiSiNqONRi1RLanU0FL0zujWGGX6R740Vjz0YOxmnE1cW9y3eJb4pgSkhIqF3j+SerD2ziSaJ55JQSeSkrmSB5NTkyb36e8/sg/b57etKEUpJT5neb7q/NpWQGpr6OE0urTDtywHXAzfSedL3p08dND3YkEGfQc14dkjz0KlMVCYl80mWYtaJrJ/Z/tkPc+RyinLWc8m5D/Pk80ryfh0OPPwkXyW/4gjmSMSR4QLdgtpCpsLEwqmj1kebj/Efyz725fiu4z1FSkWnignFscUTJVYlrSeETxw5sV4aXDpUZlDWWM5dnlX+9aT/ycEKvYqLp3hO5ZxaPU05PXLG9ExzpWhl0VnM2bizM1UuVffPqZ2rq+aszqn+URNRM1HrUNtdp1pXV89dn9+AaIhteHve63z/BaMLrRdlLp5pZG3MuQQuxV56d9nn8vAVyytdTWpNF6+KXC2/RrqW3Qw172lebAlumWh1bx24bnG964bmjWs3ZW/WtAm0ld1iuZXfTmhPb//VkdixfDvy9nxnUOdU166uF3fc7vzVbd/95K7l3Qf3TO7dua9/v+OB9oO2Ho2e6w/VHrY8UnnU3Kvce+2x8uNrT1SeNPep9rX2q/ffGNAaaB/UHex8avT03l/mfz0ashkaGHYeHnnm9WxixH9k7nnY86XRuNG1F/vH0GPZLxlfFo1zj1e+knjVOKEycWvSaLL3tePrF1Pkqfdvot+sT6fP0M0UzfLN1s0pzLW9NXnb/87z3fT7yPdr8xkfmD6UfxT/eHVBb6F30W1xeom69OtT7meOzzVflL50Ldstj6+Er6x9zf7G8a32u9r3+6uuq7Nr8evY9ZIfEj9u/LT8OfYr/NevSF+q7+arABKuiMBAAD7VAEDnDgAJzs8Inlv533ZBwi8fCLh1gWSh94h0+EbtQ2WgTTBIzCNsCS4Cb0WQoMHSzNMO0rXQ1zBUMzYytRK7SI+Y+1lGWF+xzbG/51jiXOX6wYPgxfIR+OkEiIJEIVZhdhE2UXYxbnEeCX5JfilBaWEZUVmxHdJycvKKCiqKGkq6ysYq5qrmaibqJhommoZa+tpaOhq6Snqy+qIGPIbMRgSjX8afTWZMn5v1mrdZ1FoetUqxDrFxszW2U7YXc+ByZHTCOSNdIFeEG8od78HoyeElvFPGW2KXsA+fL6cfC5nkTwwgBbIGcQULUqRDVENNwlzCKRHJuwsjq6JOU0uiC2JyY7PisuMPJ5TsqU1sT3qxF+yTTtm1/0TqiwOC6bsPdh7CZAplKWQb5DjmBuYlHi7Irz1yu2C0cPkY03GZIoviwJIDJypKr5cNlr85uXwKe5rjjGSl1lnbKr9zMdUHa4pqa+uu1z9sGD3/7sL3RtwltsviV3Sb3K9GXctqPtnS2NpxvedG383+tke3utovd5TdTunc1aVxh3hnpvv63fp75fdzHiT0+D00fyTbS987//juk/K+yH6DAdLA1OCVp6l/2Q+JDKOG3z7rHWl8Xjga88JlTO0l58v18fFXnRPnJrNe755yfqM1LQyvspXZv+auvi1+l/I+bJ78gfwxciFn8drSwme9L2dWSF9LvkutPllP+anx69c/4q+AnEMVoi0xLJiX2CZcLj6IYEQjSctAu043Sz/CMML4iukN8QPpM/MKyw/WNbYf7D85fnCucH3mXuCZ4R3jG+S/K3BdsFooRzhMxEpUUgwv9k68R6JOMluKIm0pIyNLJ7uwY0DuqnyxQrIiWcle2UBFQVVAjaj2S/2jxphmj1azdqVOrm68no++hYGCIacRwuit8ROTS6YFZtHmThYqlmyWa1avrO/Y1NsW2CXZBzo4Ouo7yTsLuJBcsa6rbu/dxzx6PW95Ne487X101yGfZF+qH4Xs6+8R4BRoH2QTbEmxDDEL1QyTDReIYNlNE4mIXI/6Rv0e/SMWHUeMF0rQ2OOUGJ1UlNy2dyaFZj9fqkya9gGbdL+D8Rl5h6ozO7JGs7/mMucpHLbPjziSV9BQ+ODom2O/ijiLlUvsToSWHiw7Vd56sr9i7tTPM8yVEme1q+zOkatjaw7VlsDnXG/DwgXiRcVGx0tRl/OvNDR1Xx279qkF08pxXfKGxk2LNrdbge0xHSm3UzsPdB28k9F96G7mvez7uQ/yevIe5j3K6819nPMkq+9Qf/pA6uDep3F/RQ3tHo58FjOS9Pzg6NEXlWNNL++NP3/1YRK8Jk4JvpGf1pkxn/WbO/32w3vl+aQP7R9/LmouxX26+PnNMvuK5deUb03fZ9e41x1+ZP/s3o6/MUIfuQP5EdWJPoRxxIpjl3DX8RkEBxpumnHas3Th9OoMCIZOxnQmCyIDsZ90hNmWhYHlMWs2mwk7xN7KEcEpxDnClcOtw/2Bp4zXjPcLXwW/Gf9HgWOCGoJjQnuF+YXbRbxF1kVLxJTEesUDxNcljkpKSXZIOUrNSKfKiMiMyObuMNjxRa5G3lOBTqFDMVJJQGlQOU1FQWVSNV9NW+2DepmGucay5lkte62f2g067rpY3Wt6ZH2i/m2DSEN+w36jNGMl41mTUlNb+L3jpnmUhZTFG8sKKw9rVuunNoW2DnYku2H7Ew7ejsKO75wuOye6GLsyuI66VbtHexh40noOe53aGeyt4L22665Pga+Xn4TfCrnb/2iAb6BiECpoOLiekhLiFCodhg57FX4jomR3fKRrlAaVNxoVPR8zFNsZ1xhfkZC/JzUxPik02X/vzn1uKU77HVLt0+wPOKQ7HXTP2HkoIDM0Kzo7JScztzCv4nBdfvOROwUDheNHPx5HFUkUe5UcOXG3dK1c9qRfxfFTD0+vVyqcDagqPddXg6rVqouvb2x4f0HyYkhj/aWFKypN+6/2NnO0hLV23+C7mdL2ut2qo61Tvut8t9Tdy/cNHow+TOjle9zflzfg9FR0CAy/H3kz+u4leCUyuWuqfgY9l/gefKhaJH/WXVH77rxeshH/rf8BNwpGBYDjhwDY+J/HoQ6A3PMAiO0BgA3OPe3oAHBSBwgBUwAtdwHIQvvP/QHBiScBkAAPkARqwAzOL8PgnLIYNIIeMAV+QOyQMuQIRUPHoVboJZzzSSNcEKmIRsQ4kgFpgIxHXkDOwFmaF6oM9QLOxHzQ59AfMCqYVMwTLA82HNuBI+EouE48Jz4WP0hQJBQT1mnINI9p1Wlr6djpcukR9En0XxliGVYYE5kgpmwiK7GKpEbqZw5hwbKcYzVmnWHLZJdi7+eI4eTgbOfy56bhvsLjwYvkvcDnCWcEAwL5grZCTEJPhYtFPEUFRGfEzotHS2hIQpI9UgXSnvDqXJQd3NEmVy1fqLBPkaLkqKyhwqcKqU6otakf0wjR1Nai1xrTrtOJ0dXVw+kN6DcZXDVsMbph3G5yx7THrM982GLcctZqyXrNFmfHai/qoOZo5UR2TnYpcW13m/Mgeep7Re6s9B7yIfjq+yWRW/2/BqoFJQV3hhBCncOqwpd3m0VWRC1Ea8XkxI7HKyUc2bOU5Jp8b592SnuqZdpUelaGdibIGsi5lFeeX1hgdhR57G5RQUlAqWG5dIXgaZFKpSqb6qjasvpHF0Cj6mWbJvdrwS3J14/fvHJrsGOli7fb7F7Mg9MPn/T+6JMZ2Pn08NDtEdIoeezC+Pwk95TatN6s/Fv6d8/mD3/csdC5ZPap+4vCcunK6jf77+dWl9Y1fqT8vL15fmzFnwjHXwKoAhPgCkLAPnAMNIBuMA6+QSRIDrKBIqAjUBP0HAEQEnCWn4a4jHgN5/FWyHRkB3INpY06gOpFs6MD0c0YPMYb04xlxIZhH+Gkcfm4ZbwX/h5BllBMg6SJopmkdaZ9SGdI106vRX8LzmIfMNozjsN56i/iMZIs6TFzBJx5trL6stGwtbIHcrBy3OfcwyXNNcldzGPLi+Pt4tvPbyCAEXgsWCTkKywrvC7SK1ohFiVuLMEl8UnyodRZ6RQZT1nNHRJy7PJ4+XWFBcUppWfKD1Vuqp5XK1U/pEHV9NQy1JbUYdRZ1h3Va9dvNLhs2GTUYnzTpMO02+yheb/FM8tXVrPWSzZrdjh7VgcxR3Una2d/l72upW7X3Uc9fngJ7rTwjtl12qfPDyKr+EcE1AXOBItSQkIuh66Gm0YU7Z6L0qLuje6IRcVZxRcnzCSqJx1Ont1nnFKbSp+258AsfJ70Z1pk3c8xy+097JA/UZBylPfY7aLAEvoTrWX+J0kV907vrVQ5++nc5ZrYOq0GzPmhi+cuJV/xuqrSTN8ydf3qzQO3bDrYb0921XVT72k9wPYMP6p7vL/Pa0DnqcgQ0/CDEefn0y8SXzKPX5lwmlyfqp12n2WY63mXOW/5kXHh2dLpzyHLKl8R3/pWy9aDfipuxx8JMIB28wQQByrwCnAD4eAgOAVuglF4/wtCFlAsVAUNI2gQRvDO70LikPbIU8hPKAtUDRqPpqJfYZzg3W6DHcKRcd/xRQR1wjTNCVo92jG6JHp++h6GeEZJximmU0Q/kgTpK/N9lgrWJDZPdj0OKU52LhpuBPc6zyrvOj8QwMJvoDzCsiLaog5iQeL7JU5IXoPz7kVZxh0Kcq7y+xSqFPuU1lQkVN3VCtUHNZm13LWrdBb0tPXzDF4ZKRrnmEyaaZkXWXyysrO+YEtrF2b/0FHSKcf5nauFW70H3pPidd9bdNdBn2k/Q3J1ADLQP+gORTQkI3Qu3CqiMZIlKoE6EWMUezGePWHfnvdJbvA+VUmpSeVIO5yOOpic8SnTI+ty9q9cp7yaw6tHHAsuHiUcoxy/VyxVkntiocy1/FaF6KkC+Oz3P9t7TrO6ppapLrF+5rzjhbZG0Uv5l1eavK/ea5ZpOdK6eMP+5sVbhPbAjvZOYlfAnea7qHt298seTD2UeETprX482cfZbz9wcPDq09dDhGG5Zw4j1OeHR+te3BkbejkzvvRqfRJ6jZ3CvMFMg+nVmQ+z43OP37a+q3yfOR/xwfqj1AJ24dVi61LWJ4/PEp8/fWlbTlsx+or52v0t5bvm96XVc2se64T15h/kn3Q/r/xy34j/1rejzfuDEYDTXBto4NK7vf/+brP1Xekfucm/W7B5u2yUjdtls4VvGvA/E1XQf+PdgnAAAABiZVhJZk1NACoAAAAIAAIBEgADAAAAAQABAACHaQAEAAAAAQAAACYAAAAAAAOShgAHAAAAEgAAAFCgAgAEAAAAAQAAAOWgAwAEAAAAAQAAAH0AAAAAQVNDSUkAAABTY3JlZW5zaG90vNC1QwAAAj1pVFh0WE1MOmNvbS5hZG9iZS54bXAAAAAAADx4OnhtcG1ldGEgeG1sbnM6eD0iYWRvYmU6bnM6bWV0YS8iIHg6eG1wdGs9IlhNUCBDb3JlIDYuMC4wIj4KICAgPHJkZjpSREYgeG1sbnM6cmRmPSJodHRwOi8vd3d3LnczLm9yZy8xOTk5LzAyLzIyLXJkZi1zeW50YXgtbnMjIj4KICAgICAgPHJkZjpEZXNjcmlwdGlvbiByZGY6YWJvdXQ9IiIKICAgICAgICAgICAgeG1sbnM6ZXhpZj0iaHR0cDovL25zLmFkb2JlLmNvbS9leGlmLzEuMC8iCiAgICAgICAgICAgIHhtbG5zOnRpZmY9Imh0dHA6Ly9ucy5hZG9iZS5jb20vdGlmZi8xLjAvIj4KICAgICAgICAgPGV4aWY6UGl4ZWxZRGltZW5zaW9uPjEyNTwvZXhpZjpQaXhlbFlEaW1lbnNpb24+CiAgICAgICAgIDxleGlmOlVzZXJDb21tZW50PlNjcmVlbnNob3Q8L2V4aWY6VXNlckNvbW1lbnQ+CiAgICAgICAgIDxleGlmOlBpeGVsWERpbWVuc2lvbj4yMjk8L2V4aWY6UGl4ZWxYRGltZW5zaW9uPgogICAgICAgICA8dGlmZjpPcmllbnRhdGlvbj4xPC90aWZmOk9yaWVudGF0aW9uPgogICAgICA8L3JkZjpEZXNjcmlwdGlvbj4KICAgPC9yZGY6UkRGPgo8L3g6eG1wbWV0YT4K9/KowQAAL+hJREFUeAHtXQdgVUXW/tIDJCGhhN470kEEBAVUhHXtLurqWtnVX1cUFcXeRUBUEHbXLhZsqKBYQRSU3gUEqaEGQg2QQPr/ffPeDS+P98gLvEASZuDmvjt35szcc+e7Z+bMmTMhmVlZebDBcsBy4KRzICI83GeZoT5jbaTlgOXAKeOABeUpY70t2HLANwcsKH3zxcZaDpwyDlhQnjLW24ItB3xzwILSN19srOXAKeOABeUpY70t2HLANwcsKH3zxcZaDpwyDvieKDll1bEF5+UdPW0cEhJiGXMaccCC8hS+bAeAAl1YWBhCjwG+3NxcZOfk5NfWAjWfFWXuhwXlSX6lDhAjIyIKlLxx8zYkb9+Fvfv2I+1AOhCah9DQUMTFxaJypTjUrlkdVatUys+Tm0eQZhOkBLKVo/lsKRM/LChP0msUGMPCQhEW6mL5ipXr8PP0uZi7cBmSk3ciIzOTkjAXuTzg0YUNCWGecEpS5isfUw6NG9bBOV07ote5Z+aDNCs7m1nyiE8Lz5P0Oou1mBBr+1qs/DVgUdc0jFIv7VA6PvhoMr75YQb27N2PrKwsxFSogKaN66NZ47qoV68WgZaA2JgKplI5BOi+1P3YkbILazdswZ9/bsCGTVuhrqwkbYP6tXFd/4twQe+uJj3fpQVm8b7OoFL3Z/tqQRlUNhckJukl8GRSCr44ehym/jwHhw9lIC4+Bn16dkG/C3ugRbNGBTMVcpXDceWMmQsJ7F8xd/5SStUQJCTE4tYbr8ClF/U2uS04C2FiCbltQXkSX4T0pxGUjupOTpj4I15/ZwLS0tJRu1Z13HrTFejTq1tQapOWfgjjxn+FzydNQWZGJmrXroGnHvo/NG1SH5nZlJp2tBkUPhcXEQvK4uKsF11HOmZkZGDgA8OxcuUalCtfDvfc+Q/0u6C7V+rgXErhM/LVcfj6258RHhGOqy/vi//759XIpaTO5njTjjWDw+dgU7GgDDZHfdBzALlq9Xrc9/BI7OO48ZzuHfHcEwONJtVHlqBGrV27EQ8+8Qp2pexB6zbNMGbkw4a+lZpBZXPQiFlQBo2Vvgk5gJwzdykeeeZVo8S5/+6bcclfevrOUIyxDz7+CmbOWYS6dWrgnf88jaioKGSxO8v5k2Is1ZIuKgcsKIvKsSKkzwfkvKV4+KlX2F0Mw8jn7kW7ti2LQCW4SV99bTw++ex71KqViPffHIoIKpyk7bVd2eDy+USo+QOltX09Ea4yrwPIVWs24PFnx3LSPwyvvjjklAJSj3TXbX/HDf+4BFu27cBtdz9jZKTmST2mQE/wyW324uKABeUJcFaAjKBi5dDhw3jw8ZdxODMDw58ahJbNG58A1eBl/deNV+GKi3tjzeokPMYudRg/GNa+IHj8LS5KFpQnwFl1BfVvyOOjqFzZi0F33oBOHc44AYrBz3rfwJsptZtj+q/z8RW1s+oy6WNiQ8nlgAXlcb4bIyXZwL/+5hcsWrICPbp3wuUXn3ec1Io327Cn7zE2tP9761Ps2bPPALN4S7TUT4QDFpTHyT2Zzh0+nIE3xk1ARZrFPf7gbcdJqfizVahQHvfcdQNSUw/gpTHjrLKn+Fl+QiVYg/TjYJ+kpGxZx747ATt378WQe25F+fLRAVHK4+qOL776CYuWrkR0VCR6ndMZ3bt2CCivEk36ehrmL16OyMhIY5jek4bpgYTzzz0LkyZPw8zZSyClVPMmDWDN8QLh3MlPY21fj4PnWlJ1iCZuV9/8AOIoJT96Z3hAVJK378Sd9z6HlJ27qaQNhQzORatT+1Z4+YXBx6Sxm93OO+55Flu3pYALR8y4MAShaNOmKcaOfOSYeZ2bK1etoyb2aZzVuQ1GPHMf5y6znVv2fAo4YKdEgsR0R0pOmvyzGZ9dc1W/gCk/RGubvftSMeCmq/DDl69h4kevoBsBMn/R73j1fx8ek87DT45Cyq49uP7av+J75p308avoeW4n/L7sTwx78Y1j5nVutmjeCO3btsDiJSuxNXkHwtkFt6HkccCOKYv4TpzJ9++mzuTi44SA7VmX/P4n1q7bjItp4XPTdZeiXLloLtOqjGGUWI0b1MXP1I7+vnw1ZKL3x6ojx+q1SZg2Yx7WrNuE87iy5PZb+6NChXKoXDkezzx6F1eZNMaMOYuxf//BgJ6k/2V9cTD9MCZ/N8OMLa0mNiC2ndREdkxZBHZrJiGS85Jr12/E1q3bccF5XTm2K+hBwB+5pC3bjHF4z+5HjwHPaNmEy7EWYODg55GdxUXOXiG6XJQpp0e39l53QMnXjOss11OJc5Aa1pij7ntHdD6zFWokVqUZ3mLcdsvf2H0OsQYF3kw6xdcWlEV6Aa75vd9mL6XmNRPnF2EJVlVKVXkQWEkp2KFdQfO7TVuSjdT6x7WXIjKq4Dyixpx7d6ViIucYV9II4FwvUG/YuAVR5SIpeaMCehIZO3Ro1wzTps+DXJDUo31sZlaONSoIiHsnJ5EFZRH47KxPXMIxWVzFGJzRIvAFyp3at0SVypUxfsJ3aNq0Ac50Gxm8Oe4LLFv+J7p1aY9bb7jcb20WLlvFpVm/oCXLPMetrR3/6WTMX7gC7Vo1QxV6LAg0dD2rnfF+oO5yvTo1mU0fG2usHij/ijudBWUROBzCrp6mETax6yoJU4HrJAMNUZz+eOi+AXjgsZG0AHoJ1atVhdZcSnmjselD9w7wS2rO/N+5DCyVHgyy8NRz/0G1xMpGc5qSshsV2WV9bEjR5khbUeETFRGF5cvX4uJ+Pf2Wa2+cGg5YRU8R+K6u5K5de5F64ADq16tdhJyupF2oaX3v9efRjZIqNzeHXc5y+NtlffDJuyMQG+vyy+NNdNacJXiEmlcDyEfuQG/ON0o5I5Bf+tfe+GTcCFSqFO+d7ZjXCZUqMk8ctvDjouAor46Zyd48aRywkjJAVquDJ7+scniVQUue2rUTA8xZMFl9Osd65rG7Ckb6uZo1dwlXnozhWDQcLw8bgmZN6hlA+0kecHQUDQ8qEZi7KX3lPU+glDMuBQvQgNlYbAmtpAyUtW4j7lTOM2Zn56JKfOBjuECL8EwnQJqVHeFhGDXSBUjP+yf6uxadd+Wmp9H8INfMV8rBl/FF637OE6Vv8x8/B6ykLCLv0qh1RUgeyscGPp4sYhGYbQA5BuEE5OgRBGTjBkUlYdIP+WYOhs1fzd+U8556HI6NEVYVaFYZIc+Ol3mQugEY1r01Hujd3iyGturY42J5UDJZSVlENmbLrQZ7euF+9qsvIrmjks/idMujz7gAOWq4JOTxAfKJ7+dh2DdzQYQhjtMgobTeyT9opxcVHYUYKqqiaO6n+ziUiQc/m4HXZq8wXgqsUcFRr+akRVhJWURWR1NrKSmSyXFlsMOceeyyPkdAEkCjhj+E5k3rH3cR/128FqgSh+wnbzTG84UR2kcrn4TH38G7C1bjtq4la01oYXUva/ctKIv4RmNiy0MWo6kBmrUFSt50WanUCQ8PdXVZm9QPNKvPdPViorFzz368PvsPNEiIQ2bekc2BvDNEh4VjybZdlKo5qFGM3XLvcu21bw5YUPrmy9GxlI4KCWzgYVSK7OAc4fGGH6fNwjIakkdyWuN8bjmwnyZyRstKCfmK0bL677LKEmfJ0j+olIlEl7Pa+vV08Npl3dHxpQm44/PpHC9ylHLgkOl2H1XnMD6XgJjJFSPRkRh1aXeOMY829Tsqn40oNg7YpVtFYK3sRFP3HcB1A+gYq3VzDH3qniLkBqdTUmnf+gKSaBqn7QY0DaG9RKLLRxr/OUOfGsgua0OfNPcfSMPdDww1hukhOXnI4a5c3KEE3bu1Yz0G+cxzgF7TO746EWv2HcSbf+1iusVy0OyECGp/dh46hHu/mo0LW9bB5Jv7IZx+fOw6S4dDxXv2t3TLSsoi8D03N89M1FdKiEfSpm0uraVbggZCZgida23dsgP9r+yLa67qy5UdaRj93/G0aV1HVyLn+wWkaD/69Ghs2LgVl9Fg4PprLuJ6zgz8582P8evsxRg19n3cTQ/s3iGWkrg6DRTWsBt7c+cWxvjcO8221DTc+9l0NOR+JBaQ3tw5NddW+1oEvjsaySaN6mJbcgp2cLFyoGHZH6sJvg04//yuGHj7dUjksq3GDeti1IgHUY2/f3Ev3Vq2Yo1ZwiW7VB1/rFqLKdwYSMu5enTriPsH3oTqXOWhHbdGPHs/mjSqh6nT5+BgWprPqmTzQ6IpjzR1T32E9EzXWDPLbTzgI4mNOskcsJLyOBjerUs7/DBlJjTBLwkXSEjasM3svnVh724FksvIvU3rZvh11kLcOeg55PhQyETTw3lkVAT3pOxcIK8uOnVsiU8n/IC9tDRSV9h34LjRhlLDAQvKIrwqmaDlUKJohUc8FT7Tfp4XMCjjK1JBRIXLeu4z6e2Gcgd3cFa4fcBVR80Rqku5nRL5i6+mmu4rehSs8NYtO81aS9nC2lA2OGBBWcT3KOVMQnxFLttqjAWLltGoO5lb3NUolErHDi3MeHT8Z9+iVavGaOnel/KzL7/HYi7L6tC+Ba67+mK/dKb+PBsT6XCrQ5uWaM/NexTk3nLugqVmLJpYtbLPvIEOeWXXa0PJ4IAFZRHfgzOuvOqyCzBvwe8Yz/06Hrjn5kKplKf1zCAqY54a+l/cPXgYGjWobTyrJyUlc21mBQwZdOsxaQy+5xY8xNUigx8Zgcb16yCDljpS/MiL3iODB/jNm5HjGkt6al09E+dIG0tAHjhMSyUGeVbIzLLb53ny6GT/toqeInJcXVh5getyZhsCqw6m/DTLuJkMhIx87Iyh57lWdP+xc+cegjIT/c7vhg+4AU+Vysc2cNdyr9dGPYZ2bVrQKGAftGGs3FO+98ZQ1KxR7ajiJy9PQsKzH2BhEpdnUbpH0yjBV4iOYHx2Hj5atAaNR3yKBRtTjGG65KbH7ImvrDaumDhg5ymPg7GSllpR8ctvC8xUxXlc4/jUI3cWiZLWR8qhszbdKWrQ7lla26n8vsJNH03DuN+Waztp3HhWczx2QSc0qlLRV1ITt3jzTjw+ZSEmL6TxOl2WDOlzJoZe1IUuMLM5hjaC1G9ee+P4OeBvntKC8vh5atz/33X/87Sw+RMvDr0PZ3VqcwLUgpO12+iJmP1HEuo0rI4pN/VFs8TAF0DP2pCMs9/9EeC+KP27tsQnN/Qxzr6OmBsEp46WiosD/kBZ9M+05ajhgDO21FiwHC1yXnjpbc4Vpp9S7lz01jeYvXIj+nZqik0PXFMkQKri3RrUwKHHrkOzRjXxKW1m/+/zGWY1jAXlyX2tFpTHyW9nbFmrVjUMuPFKjhF346EnRh0ntRPPNnrGUny7YA26tKqH7wb8pVCC78xbiRYjP0P94R9j2E+L89NHc0na8kFXoVLtqvjftCWYtHwDIhnnfITyE9ofxcYBC8oTZK2UPv2v6IuL+p6DxYtWYOiIwLyVn2CxBbLvSTuEu7+eTWv5WPxwS78C93xd/Hfmctzy9vdYtWMPNu5Nw5AJ03H3l7/lJw3nOHf+bX+lKjYMl306nfbpuZxjtVMm+Qwq5h8WlEFgcHZODj3V/RPtaVQw+ccZeHH0uCBQDZzEsz8tMqtAXrukC+IC8P96PyUgqPjZ/PB1OPj0jahRtxpGz/kDMmB3QkPef+A8bjxER2FjZy2nUslKS4c3xX22oAwCh9W10zzgS0MHozWnO76cNBVPD/tfECgXTiKbUuxlLkxGtQT8s0vhi5OzqU5Nz8xENc5v1qafngqcl2xdOdaspTyY4ZqrdEp9SKBkuhd+XWGirFMthzPFe7agDBJ/cygtwzkFoXlIrXP8jhJz0JDh1F76X1wcjKIXbkoBdqbi9jYNCrjh8UdbXdNrmtTBjuRd6Pfmt/j7B1Pw44oktKhdBTXiCtrOxlPq9m1eD1vZzV1PL+3htgvrj61BjbegDCI7BUBtcTfy+ftxxSUXcA/KP9D/xvuxcMkfQSylIKkZG1zGAZe1bFjwxjGu3r/uPJxNsH2/bD0+mrsSDWtVxS//5BjSR7i0ZV2Ay8QWbd3FLfjCrMLHB4+CHWXN7ILMUUnMXFr9DL77ZjpL7oXnh7+JOwY9g4suPBf//te1xt9qMItcQwkGSrQ6CRVoepeNTM32FxIi+eH4mYqcP5lXa0Qb05dPBOMOyFOfR4im5G+RWMl4uluZsod3At+mwYOM/VlEDljjgSIyrCjJncnh9z6chNe567M8onfv2t6Yx3XueAaio6OLQq5AWm1ZMPW7X3Dfql3YHkU6BCTXfRVIc8wLKVMdiyB+SMx2It4ZnDTUMN/YthHevba39UrgzaMTuHbahzcJKym9ORLEa7nVkFvHG7gfZZcubfHmu59jOre8+/7HmahZsyrtWJvRhrYtWjRviKq0fT3W8ivtP7mFG70uWrQSc2gI/+faJOTuP4DcDl3BbbdwZo1KCJWLEfqk9Q5hlNxyJSkhmmUkuXcK39fKl0XH0wtphleO0yM2nBwOWEl5Evjs2MqqqC3bdmDKtNn42b0VXQY1oeW5gWxluhjR/pKxceXpj5Ue8wjmDHoLOHgwHXtTU7mIOZUOttLMIuiE+Di0aNIQf7+0N97Zloax05di61M3o2ZCjN+n2bL3IOLL09crF0sXJczmmLXb0PF48e+9cV/PdlZSFoV5haS1krIQBhXnbU0lZLILqN5grZqJuPn6y8yhDXYWLV2JpXT7kZy8E/volGsXV4Bk0VhdY70wjumiaPgeG1OB6zeboBFdgLRr25zrJxsgviKnMRgWzaUSicuupq7Zihs6u9ZZmhvuP1voNKvO6C+A7XtpoB6Bpy/qjMf6dPJMcszfP67ZYizS29TUek1JYT2FDcXJAdt9LU7uetB2mrI0tFoSRZxCJnq1a1XHJX/pZVJKSXSYTp6zOD7UvKdWkGin6HJeY095P5AlkaY3ejWsSdeQEfiYmlRfoLzmg5/opDYdt/Rsi2lJO/A4Pddd0bohzmB3N5DwGc3saJGADuxua4G36m1D8XLATokUL399UncadhYBqnGnDoFMckjbCcRyvrAiJWFMTHnjHkT3nHQ6OztkyRCgcdV41OWUxnc0RE+Rb1ePIGDP3LkX4ZVi8Fb/nniyV1v6d83E8mRpUgsPK5huxfptOKdBTVSmc+ccOeGyodg5YEFZ7Cz2X4CEjrq2jqWMxp7GOoiNX8BTF1bXCk46J63inHtPUArK2fIj33PvEI8gFx+XN6iO7JR96Dp2Im6aPAeoEI0u9Y9eFO2RLf/noEm0p2V4lJv+KDjlmQv7p9g4YEFZbKwtfsICaDYXIt9yVgvE10vEm1zY/Ns6+qP1COOu6Y0ujWpjzvpkTpnkYvw/+qBeJdd41CPZUT8/WUTXlsvW4MzGdXFB8zpGknt+EI7KYCOCxgGrfQ0aK08NIUkveUFYsHEHznzxM25BEI0tXEup/Sc9w05qcROo5dU4tLCwaHMKOr7yudHpJD18PUEcw+6z9dtTGN+Ket+f9rXwN1TUkmz6k8oBSS9pdjvV40qP/ucA9Lpe+8VPsSx5d4F6VOX4NBBA/rR6CzqO/tIYI0y8oa+RqhaQBVhZ7BcWlMXO4uIvQGPTLO6beVePNhh+JYHJOck2Iz7GCx6LlwurhUz0Bk+chfPHuAD5wT8uxKU0cs8kXdttLYx7wb1vu6/B5ecpp6Yu0WRqYi/+YCrXQu4Hqifg6bNb4dr2jVGXi6AjuTu0EwRE2c6Oo8OsF+n+w6SvWQnzuVC6U51Eo/G1gHS4Ffyzv+6rBWXweX1KKTpjzDSujXz4u7lcvLwSoAEB5EqSlkCNON0Sz7nPlIwMbKaFEPbxkP0djdKf7NEaj/fpSMkYagF5Et6iBeVJYHJJKUKzKFr7KLvbAzRGmPzHRnxO44L52/ZiE3dspsqWrj7C0VDTI/TF079VQ/TjVnjyxSMDBhknWAlZ/G/TgrL4eVziSpDUlHInlOsgnZBJQGYQeOXYjdU27k5w+XjNs2B0GHISzhaUJ4HJJbUIZ9KfilparspYQYYALmMAx0bHSsaT//b8gdLavp78d3HSS/QEnEAoQJpAdEpza0PJ4oCdEilZ76PU1sbBeal9gBJUcQvKEvQySmtVTPc4X/yW1qcoOfW2oCw576JU1sSRkLYbHLzXZ0EZPF6elpQ4w+kK0h7ZEBQOlApFj3fP6HR5/6Xhuc2kyunyQoICucKJlHhQqmFGhvOP8yHmvHdmrkutX/jjld4Ueu6IUM4bOlOJvM7KcZhQep/L1rxwDpRoUBpARuRh5MYIbKFH/QME5OCaOWhWPg+ZHjgt/DFLVwo+GiIJyDXpYRiZHIpyHGTUpRfJQTXooYAe62wo2xwo0aB0WH//Wv6idRgygM5xYWhWgQgt642T2FuQFoLX5FxdDujKE5S1OYLLdkQn406jIA2vM9/q+bsssqBUgBJRZL00ChQhFShBTpcgCWkAGcmzjtM0CIRayO0Z5KvIAalnfFn4XTpAefrgsCy0qaA+g2sIE4FNm7dg2PAxkHuxW67vj7PO6lhmV7LYKZGgNiFLLNgccBS7Y8a+g+07d2E/nVIPHznWFFNWJaUFZbBbkaVXLByQx3g6wzUe9bSBbVkOZQaU6uGqq+N5eL84z3v5v70T+bnOT+9ZhjttgXv+8jM+P533b8/r4+yq59P2UT+nSgXSOJFFPGt8d+QoYmav5Efo+H9o3WGJGHjXAFSvVhUx9Ic75IF/G0rKXxZDmfjk6N2EUVsZFnbkJSkui/OZZn6Tv7XfaYTum8+Q2w4lLxR5UmhSk6ucTHJUEB11oTRFAaP4PDqvuefOrEX8OaTndLtEULSV1dQv1J1fN3Jdm+5Qr8hFySqIcTwVZdpD9Sv02VQBhvx6ustQtK9nNok9/qjxq6uoIzQ01Jx1W/HyT+uAw7s76ZnPSe+kFR2HlicdbxqqnzzG16ieiLGvviAyJlhFj8OJEnhWo1Rjy+J5aWoo5EFRm4TH8tyE85m6H8a5TmlvF+8PxRf7wrCWjsSj+bY70/1p/8rZqBzNPSWzQ6lEKLiUyaEtRK0+EIIPd4ZjLadlIpm3E/NeVSkb1crlICktDLuzuOMVi2nC69jwELMrnQPMSH4MBP5v94Tjmz0h2MMKVuG8Y7+KeeibkEWwsm772NjFX9a7VXkP4PrhOYsy6Y1hBS9m8dkm7QnDJtavAmmcHQdcWSkTcdRc53KXPDlmnn8gDDtYz+qRuWjNMhRXWBBInHV/As+hQ4dxOJOFsMxoenMvz+39FLK1m5eHxwIHkOp2OuUYB9Ok4SyuPnAwjQ7bMxEZFYnYCq5dpI2neKbxBKd+K69ArCDP76H8EslZtWc6c7MM/CnVkpLvhoDkS2LbivyVKnPun2okIUE3oitwf4zgCTyZFIGnNNeZzkNP7Hq3eJeN9Q5GnF8vHFPOyISwKymlpmpoE0w7M0OQOI+ZdjHSiDvdBN6lIcO/c8NxecNwfClvjvt4sK0+1zkMD9fLQg4bv0JEeA7e3x6FG5bxQnOt0uybAoAxShMdiTvqAf/5k/Gkq5DcNw/VPaS+K/bIXyXTI4ST9tvJUbhVc5l0teP5bG/x2W4JicQl9YGJLbgZLIuShdB0gn/+oTD82CKHUa4eAnP6DGrwAtfCRUsx5adfsWbNem5ClIoM+vfRZyM6MhLVEqugzwW9cPll/ZDD9HIn4gBFYP76mymY8MUk81F6cPC/cUbL5vhhys/49LOvsGvXboIyh1sAhrNrWg1XX305ep3b1WzXl+cGuMrXdMi49z/B9F9n8aMbjsSqVfHcM0No2eV6vz4rX4ojSy8o2TIFSITmIGw6xQEBAX1s2fC/6JmHyxPZKvUlnc4JPjVYSiboo6736AgiAYQcmLqJbfZAJPK6cj9Jgk0ST7STCciavzCBQMTJe5PPMy/TfLmF8bqvsgnaBAGXQVEC5HObovDoEl4ov8pXfh1KoDrx/J8NPLsEjgFmYS9FWQXIa1dG4eM1vHBos+75QUR4fLWRLEqJxMHuWWgXk2sOlZnFnoHA7S8IDALVhx99jtfeeJ/dx2puew2ChGAU8HSWtHvrnQ8xa848jHjhCSPRPGkKwHvpuEt7Xa76cx3mzl+Mjz6ZyL1S4pg/ihvphnG/lHDSOYjhI0bjj5WrcOftN/PjWLB2h9IzkUo64XRjos13y3JQsy6VwQAyjF/lX92AFBgoIb/t6gJkpqQQuzgP1WO83q9Ay3c5tCUbauc8fNGJkQmME0gFDkq7l7ZE8KWrS8Rr0q45n61aHBJt5WdRV9YGbq3PHbOq8NppN24gMiY/aPz6+/4IPPo7owQapeV3QmXeUp/d5jr8LSfm2tFcZajMAEME6/jsRgJyLTPoYyC6fIbx7fKwuHsOZnTJRf+6jBNtGR2w7jFz+QViOTnsVhgb2gDKUzfx4r/2QWxsLLduz0StGom46spLMPDuARhw6/WoXr0KpWYmKleuhFWr1lEq/mCALEA7QV3OcB6xsTH4evIPmDx5ChIqVkSb1i0oYc/FGWc0Y5eYL44hMbEqvv12Kn79bfbRdKg00C5k6g6HeLjJdMopS+fCPsol81nViEFAziBK9D4FCkrIn87OQ2+O8wRIASsrOwTPN8zC0D0RmFg3D5cmuhHglnZ5ibloszgKy1KYn436vk3AvQQLt4XE69tIm25TDWBJe1hr4IG6QqYpnGeFXDRk/g3K781JKnTariAQBAq1UdZnXY9sepA70mA/YfTyg2FoPZc0HenJuGOFCNJJORSCx1YylQQGPyoUYkhuz7pRcWX68iG56BGfg3tqhaHbbMapbuxeP08bYqdrbT48xyhIklBd0TgC8t57/sX9MZsShCzII/S7sBfuG/wkkrfvIOgqYOrU33DxRRd6pDjyU/Qyue9mXFwsxox6njuKucaQSpGycyfuuvtRM2aMj4+n5P0IPbp3NdLYE+BHqJXtX54trFQ8qRqlWnDIbx6AZHv8jRLCE5DOwwiYeZ2ycGmVbGrxwpDNaw5X3IHKkRYUM27QaMyZLqkTkoPbNvCs7i2v29RyATKLdqcCvHPk5YRhvcAgSevGmgO5VTQmx17Gi8NMMr0jAUxAOnmdc6uYHEynhDMSm0kLDZTAD28iypxnIOgNIFkXYogKpjzjxpU7GaBrxRwMb0GKLF91fETPRI2TtLWBBilezuvVA4nVXM6ZXVvyubbmE40LL+yJNEq6EEqwg+yCKjhjSnPh8UdKooF33mIA6aLj2gZQY8Q777iZO1bvN93TvakHsHbdBv72/tJ5ECvDP0sXKNmYKvE9hcwmIDVOlIRkg5tPQJ4dn5svIT3fl3pSWerKMkRE5FDzRw0iB43zqKl9bRu7lxtIUHQU1NB5pHO8ZeiLOxSu/6vP1p4bZpQ/kjDOkWWAwUSsjgNK/jJh+l7SdRBKTe05lFz6IDh5nXMel2PVJzDz6+AQ8HvOxVs7eVMfDGa7t64rIXWfrBgLdB8hOvM5r6tGdDrPR4m/kkoeKofzq+a3GPcNSaos7uwlDaoULq4jPN8WtTrBmku3lWJVrqZ1/ARpSqPLl0Pbtq2NplbAdQ5pbruf3RlRBKHKYwcV69cnFaVH76fU0hlduj5FbPwXLGGLkjRTzdXIzslF81j/gJRj8BCOD2enRmBQUgTmSlMqLazaj1qS6OjQNUmHM25VBv8IcLrPxt+sHOfjeF9A8hl8tMVf1PUVGEgnTD01dinV3LyDSLrA7X3H9/VBfTD43KbFktxLSTzW66vgJ6gAPZ/OrEsyJXiLaDIwwFU2jiH4OoJkwaIl2Lo1Ban791PgcsNbdkcPU5ETwy6pPn6uQnQ+OuRRQlfgJkMaF0r6Fgyc4uDC0WoE+P4DB+hEOhSbtyQXTHIaXel1lZ7gblgGLKo1a/+3daFY1o5fat4TjpREQY1EgORm5oiYy0a7nZEagymB2rASqyE5B38q6HY6JVB+II1wSZ0AG7GTb5vanYgxazvDZZe206mfk66o53TVQ3UWITd9cy6MkPs51ZMNNEj7On/BYowZ+za27UhBTHlprPgRoWSTRNM3K5xbIMTFxLDrLIYeOzjdUeX17OK6AE1lVFx5A3gph6SNPV1D6QKl3pIal4M+1n75ZuCJOM5DNswwY0angQqkkpARUgZJMkrTKU2rAsF5fiWOhypSirFl3at5PrUwd1D3zjM4jcYzrrDfpvm6wXNQZ1PpoyVlYXS870eqMk79RFf11tmU4Z3a65rFV2L3vbC0Ao0k5M8zZuLZ519BDc4hVqWGNZsSrk2blmjdqiUSKlVEuagorFu/CZ9NmITybsB6lVjw0g1cT0B6JvDks780nunL6u/SBUo1PEqxnb2y0fmPcGzYwWu2/qdXAN0rRuCCyuxSOeNHNj5N2hsNqiQku3yX1gfeb5qFWI3H3GHD4RDcm3eEDeqmVpMVgdPwCeR9HAtWZJJsfgz8dmEdgu5za5b5vT4eLOtPfRQYHJKuqyN/A6WpHPERJOqe5hAvnmnB7c/rFUH+cWycyXHsscqUpNIO0W+/PR41CcgcdlXjE+Lw6svPmymJIzWnpKQ0VTe2MEwKZIezfNfTAeDePftYL5oeUhInUAt7ugYP+VAKWMB3+kmHPFSJynNpPd3KDkm+PnNCsTuDyghJAgU+2QSNH4U3diWlQZ14Bsc/FKGO5pMmKDgs4HgEmevViWJrd3BKJL2ewgs3XVE3B/+4QCakehBw/7wggQmUUPcOUO1/mJPk/C1poGhz6A9DpPvsuirkLxttb82vqovNaj22zpU+12iGpR0ueEhjnMNxaH488x0LkKpfGEG5I2UXtaGu8Z20pnfcdpMBpKfWVCVv2bqdZowOs1x18fVXwEvbf4iGBPsKANvpyh46fBg7duwyY85sqsfr1eMLO01D6QIlG0y2GrCAxCmA7T0oxhydAQFaZSYbB+cHzRhQSTwae2tJF3ecGqWZFqC2MMqLAyYLG/45iUws2sz3/GrgIIuKpASlfpDqGnbvmFfa3Lk0EDAmdm46Dj57VGRmd5kC5tkrWTd2p/XRUH5DQ0Bn3N3SAHvUVfX0G/ghebk+kaW6qTBqhy9cFoVQWvjIDjaM499QHjrrWkYM2eqO8rfCsQBpEpg0NDDgyn4BRkGAquC2TTUR/COFjcLM2fNQPjrafGxMhJ8/oiEt7m8z57N+DpdctPURmEzDAoFbZYpy40YNqVwLlCl+Ci2l0V5NsuQ/hfOaMgnMamz073VgnaWN1HCNDbTSIjVQ3qRC5GJHovDeh5uAKbtlscNxJhuoLHdWpIWikexaj7QRFwNo9fJOQ7Z6SSMFcin2lwh8uiM8v8Gn0ATvnnVR6PIbb5KEd4hm3D/rMVY9Nv5em8xi5kVhPSf+wwhogWbeARqhL4jCF0lMI6kfQJAkb0Ntc5e6TKznZr4fN5P2zChMo12r6GrFic7TaKAeMisC0d9HYmM6exF85sLaufAiMMRUkKZU00AECb9gM2fPN7VzpkXCuJPX++M/x7LlqwKeT4wlzXfe/Qhr1q43FjtSJOlYtnwl3vvgc1SkAUJmZjbq1K6JWjWrm25sACwpc0l8NKdS8oxsPOqG/qN6Fr5rGIGPklhvDiH3bgUej4/C01T83EbPd7cvZ6SQzCftI+uW8rzmf2MJpLEeu74G0A7aeSl9hCb6BzYFRq9yp+Hp6vkhuDqPXwKSMYCVJNThI2hO8vWmGXhDlkECpsqkVU2jaayI8rMMExQvGh7lu274/5tD2rPbZNBel5lTmU40+CznzdSXiYfoUbKbMmTYwKM+y13dM9usnMnkB8v7O8RU+UFjuiqVKxMc1bFnd6qRkp9/PhmrV69Dk8YNkJaejgULfseWbdtoelfDKICOPFA+mQI/HKmrMeg99z6Ohg3qoRbpb6dWd93aJCQkxJsPxoED+/H0E/ebvE6eAoROgws1j5If1IDdh+daQ33VZbEzviVbIDWpjuXKM79z/LiTIoTd0MVnM6MaqLp7aqCSfgKjQKDGrGsdos80kiRqsDI4GNUkC1c14oVM+ZRG+QVi5ZN6VQkV76OFS2Ekg4PDZ7NwpZdUUzonv846VC8FHzQkFZ3nNmeT0FWkvNrlnZ2B5jUZqedR/d0ANKBXmaKv+vGj0LK2eha5lII+CmISz+CAYdDA25CamorD3HhWZnFr1mzAl199T3O6X7GTrjkSq1TBW6+/hPjKCWZJVw4VPv6CusOtWjVHX5rmSRKnMP+SJcuRsmM3ZFonG1qtGrn99hvQtGkjfnALOsbKyXLNi0qpdKxy/JVfmuJLBSibcW2gmdIg8GpLK6LG6hkIzByu8DAG5pqoTwQuXxNq1hG2q5CD9D5Z6F2L8Wq4ajc6SOO8GlyD2Y2Rmi7RQYWfhkqGPNuuAP8ZAT+zB1s2p1BMA2cX2Rh6M1ujqhR+52ciXPUTbQbPqnFVEsesNPPrmYHnWvEmvxMGhKIhMLKs+5pyCrU7LwQez0BCierH6GPDunVQGW7igpUhQWCubJeFhefm4MzqjFQdnPqJPhNeU5dd5/OysaJ9Firw4dzRvOk/aPwnUDRu1ABvvfEyGjWuh/T0Q+xaUjrzXhTXP152ST+8986rhsh5556N2nVqoH79On6JqiuclLQZt9x0LR5/ZBCBHI9MTrFkZBymmV46Gjasi1dpE3vxXy48CpAiWjkx3kjXBkxXt7ZeZtkNIWS+ZzsqcU8qySUFS35gw/NW6euu2m+oW5nhpDV2rrypeUfXvVyjiZSSJyRMLZio0GJMjsGcoK6h8MFYE0z5+nRJKcNWn01Nprwc5OdnbMhsok1z3QTE2LZco1lbNp2uaQflUnaZ9xmitGw5nBOKaJWpijAkcVqmwXQ+gXqfjN55bjYqMVOoSWOSmD/GXNCpmDu6YP0YSe2WehMRej72FEygckhjcPUsihIkMSM4X+lk0zylYwAgOs7CZsfqxzNOvxX/xcRv8cGHEzhlUs6sFPnvmGG6lR+8aXpLSCVUPTzLUJyvdIovTUHjaV/Bd6yvlKcoTg3JmXt0quDduNRoJAHgnqN00qk1Ka1Alm1AwlXw/C2tbJ66fzybwEabH5THfaH70mSqkef5yR9JDawjJQWoGpyuMdduIsxOgjREJ9gVZE5mBCY/Bpz+M+s201W+KilQsoLybUubF/Px8ZSg3s8teoY/KsP97NJs6hmzqZ02XWh3Gl95eeuYwWhMKTEV9NtcE5hO99aJE0A8g+KdNJ7xzm8nvZPf8Tag+4rzDopz8jj3fKVz7pX2c4kHpRjs4z0dxXfzKo9+n/npHBqSj05w4pxrz7MAaexmhSphhqCR7518/DJaEviQwKYxncrm0ZquRfJN8kRD0lvEeE/dYQMUpXUCJejsfe7XwGQaB5aj9ljzi8eqn5NdZ0POTVMkdCgEmt+V2vdfz8bvAM0zzlWO5wP5puMd69DwR9Nfeu/4snjt7t+UxUc7/mcShlxOprhE7Ce6vFgcAXk1NPOAJCum6b7mBu9aR1WnIygIqEbU2mouVViOYLf7y13hCJkYiQ85naJ5TZOP+SUUXXOHuRiwRhc82P29tQrPLEF1sOH05IAFpY/3rjFjGkVq6DQiheeU7QTZtAhM2h1OcHL5F4/tnKc85/covLWWBKTppIb24QZMR45KGkpCjicQr5hNYlTSXL8gxCyo3sZ8yh9Go4GpdKQV4rgycdfjqbrsiEsc878NpycHSkX39WS/GgkpWfpUpPFB6jZeaGqB4LxsDpGSRwQKMOoHC4yahpCkpOb2uQYZVARJBjKwq9tCXumiea3xImks4zrIWpvJcoldDYKVVPl1Zhf4mTa8z2ViGn+WFUxqzjODY87wzHBOM5mRPx/WhmNxwEpKH9wxPUeCal9HTmUQKGaeUu3JmfsTkFyrmFzjSQIyr3sG5IlAWNVYTtMh7dmVzevDSUJNa2jcKcLKJzqautFZdCllh1Jr+2h9bnUnhRKjykqoVCkeLZo3QpOmDdCoUb2y8ljF+hwlfkqkWJ++MOIEkcaFtPzCw0kRGMlurPFIoHwE1Hmcu3yybi66x2dxTpSuRhjtCSiNC9UVDmNXVp4OHtgYhukyktdcohISmAM5p/ocwRhDlayvKQ+mKrVBSpyyOJURrBfib0rEgrIQDgtYR+Y5fSSmRDRTJrzlCUjPlKLh8r7HHyZInh7ppOSyu2qUQ/4IuHOVxpOjXXXq7mhdnevT+WxBeYJvX8DyGQikQLBksvuhEYypC591s5ElmgP+QGkVPQG+thMFjgFuIOgNsD42WdnlwJE+VNl9RvtklgOligMWlKXqddnKng4csKA8Hd6yfcZSxQELylL1umxlTwcOWFCeDm/ZPmOp4oAFZal6XbaypwMHLChPh7dsn7FUccCCslS9LlvZ04ED/w/ny0z3catyTQAAAABJRU5ErkJggg==;" vertex="1" parent="1">
          <mxGeometry x="390" y="110" width="201.52" height="110" as="geometry" />
        </mxCell>
        <mxCell id="2vScsUYP6JVQA4qvU79o-3" value="" style="sketch=0;points=[[0,0,0],[0.25,0,0],[0.5,0,0],[0.75,0,0],[1,0,0],[0,1,0],[0.25,1,0],[0.5,1,0],[0.75,1,0],[1,1,0],[0,0.25,0],[0,0.5,0],[0,0.75,0],[1,0.25,0],[1,0.5,0],[1,0.75,0]];outlineConnect=0;fontColor=#232F3E;fillColor=#8C4FFF;strokeColor=#ffffff;dashed=0;verticalLabelPosition=bottom;verticalAlign=top;align=center;html=1;fontSize=12;fontStyle=0;aspect=fixed;shape=mxgraph.aws4.resourceIcon;resIcon=mxgraph.aws4.glue;" vertex="1" parent="1">
          <mxGeometry x="1040" y="296" width="80" height="80" as="geometry" />
        </mxCell>
      </root>
    </mxGraphModel>
  </diagram>
</mxfile>
